<svg width="115" height="108" viewBox="0 0 115 108" fill="none" xmlns="http://www.w3.org/2000/svg">
<path d="M66.3612 1.7C65.8612 3.3 64.4612 3.5 55.5612 3.5C44.1612 3.5 39.9612 4.9 34.3612 10.8C30.7612 14.7 29.7612 21.2 32.1612 25.9C34.1612 29.7 41.5612 34.7 46.6612 35.6C48.6612 36 52.8612 38.3 56.1612 40.7C59.4612 43.1 62.6612 44.9 63.2612 44.7C63.7612 44.5 64.3612 42.2 64.5612 39.7C64.8612 35.4 65.1612 34.8 68.5612 33.1C79.5612 27.4 81.5612 16.2 72.7612 8.8C69.8612 6.3 69.1612 5 69.7612 4C71.2612 1.6 70.8612 -6.66308e-07 68.8612 -6.66308e-07C67.7612 -6.66308e-07 66.6612 0.799999 66.3612 1.7ZM61.7612 8.1C61.7612 8.7 60.0612 12 58.0612 15.3L54.4612 21.3L51.5612 18.2C48.5612 14.8 45.7612 14 45.7612 16.6C45.7612 18.9 52.6612 27 54.6612 27C55.6612 27 58.2612 23.8 61.2612 18.5C64.0612 13.9 66.6612 10 67.0612 10C67.5612 10 69.2612 11.4 70.8612 13.1C76.3612 19 73.5612 26.9 64.7612 30.4C61.1612 31.8 60.7612 32.3 60.7612 35.6V39.2L55.8612 35.6C53.1612 33.6 50.1612 32 49.1612 32C45.8612 31.9 39.1612 28.4 36.9612 25.5C33.9612 21.8 34.1612 17.8 37.4612 13.9C41.3612 9.3 47.0612 7 55.0612 7C59.3612 7 61.7612 7.4 61.7612 8.1Z" fill="#0B49C5"/>
<path d="M29.5612 45.1C26.6612 47.9 26.5612 48.4 27.0612 54C27.6612 60.7 25.9612 63.5 22.2612 62C16.8612 59.8 10.0612 61.9 7.96123 66.5C6.56123 69.6 6.46123 73.5 7.76123 75.9C8.46123 77.3 8.06123 78.3 6.06123 80.1C-0.038768 85.8 -1.83877 95.3 2.06123 101.1C5.26123 105.9 9.96123 108 17.5612 108C28.8612 108 34.7612 103.1 34.7612 93.5C34.7612 89.4 34.9612 89 37.2612 89C39.5612 89 39.7612 89.4 39.7612 93.5C39.7612 103 45.7612 107.9 57.2612 108C68.0612 108 75.2612 101.9 74.5612 93.2C74.2612 89.3 74.3612 89 76.8612 89C79.2612 89 79.3612 89.3 79.3612 93.9C79.1612 102.9 85.4612 108 96.5612 108C106.461 108 112.161 104.5 113.761 97.6C114.861 92.4 113.161 85.8 109.361 81.4C106.561 78.1 106.161 77 106.861 74.6C108.761 67.7 103.861 61 96.9612 61C94.9612 61 92.5612 61.5 91.7612 62C90.7612 62.6 89.6612 62.3 88.1612 60.9C86.3612 59.2 86.1612 58.5 87.0612 55.1C89.0612 47.8 84.3612 42 76.4612 42C69.7612 42 64.7612 49 66.6612 55.7C67.4612 58.3 67.2612 59.2 65.3612 60.9C63.8612 62.3 62.7612 62.6 61.7612 62C59.8612 60.8 53.6612 60.7 51.8612 61.9C50.9612 62.5 49.9612 62.2 48.7612 61C47.4612 59.7 47.1612 58.1 47.5612 53.7C47.9612 48.5 47.7612 47.9 44.9612 45C42.4612 42.5 41.1612 42 37.2612 42C33.3612 42 32.0612 42.5 29.5612 45.1ZM35.8612 63.7C37.3612 64 39.4612 63.7 40.7612 63C43.9612 61.3 47.1612 64.3 46.3612 68.5C46.0612 70.1 46.1612 72.9 46.6612 74.7C47.4612 77.5 47.1612 78.1 43.8612 81.4C38.6612 86.5 34.5612 86.4 29.6612 81.1C26.9612 78 26.3612 76.7 27.0612 75.4C27.5612 74.5 27.7612 71.8 27.4612 69.5C26.9612 64.7 28.9612 61.5 31.7612 62.6C32.5612 62.9 34.4612 63.4 35.8612 63.7ZM77.4612 64C78.9612 64 80.9612 63.5 81.7612 63C84.3612 61.4 86.9612 64.8 86.2612 69C85.9612 71 86.0612 73.7 86.5612 75C87.3612 77.1 86.9612 78.1 84.2612 81.3C81.5612 84.4 80.4612 85 77.1612 85C73.9612 85 72.6612 84.3 69.6612 81.1C66.7612 78.1 66.2612 76.9 66.9612 75.5C67.5612 74.5 67.7612 71.8 67.3612 69.4C66.8612 65.7 67.1612 64.9 68.9612 63.6C70.4612 62.5 71.5612 62.4 72.8612 63C73.8612 63.6 75.8612 64 77.4612 64ZM16.8612 82.7C18.3612 83 20.4612 82.7 21.5612 82.1C23.2612 81.2 24.0612 81.5 26.6612 84.5C32.8612 91.6 31.5612 99 23.6612 102.3C14.5612 106.1 3.76123 101.6 3.76123 94.1C3.76123 87.5 8.56123 80.4 12.2612 81.5C13.3612 81.9 15.4612 82.4 16.8612 82.7ZM53.5612 81.9C55.4612 82.5 57.9612 82.5 59.9612 81.9C62.4612 81.2 63.5612 81.4 65.0612 82.8C69.9612 87.2 71.4612 96.3 67.8612 99.9C65.8612 101.9 59.8612 104 56.0612 104C52.2612 104 46.0612 101 44.7612 98.5C42.7612 94.7 44.0612 87.4 47.3612 83.9C48.8612 82.3 50.1612 81 50.1612 81C50.2612 81 51.7612 81.4 53.5612 81.9ZM93.5612 81.9C95.4612 82.5 97.9612 82.5 99.9612 81.9C102.461 81.2 103.561 81.4 105.061 82.8C108.061 85.5 109.761 89.5 109.761 93.9C109.761 98.9 105.761 102.6 99.2612 103.6C93.7612 104.4 86.3612 101.9 84.6612 98.8C82.6612 95.2 84.1612 87.3 87.2612 84C88.8612 82.3 90.1612 81 90.1612 81C90.2612 81 91.7612 81.4 93.5612 81.9Z" fill="#0B49C5"/>
</svg>
