<svg width="23" height="21" viewBox="0 0 23 21" fill="none" xmlns="http://www.w3.org/2000/svg">
<path d="M14.95 10.4999C14.95 11.3354 14.5865 12.1366 13.9395 12.7273C13.2925 13.318 12.415 13.6499 11.5 13.6499C10.585 13.6499 9.70744 13.318 9.06044 12.7273C8.41344 12.1366 8.04996 11.3354 8.04996 10.4999C8.04996 10.3204 8.07066 10.145 8.10631 9.97492H6.89996V14.1718C6.89996 14.4637 7.15871 14.6999 7.47841 14.6999H15.5227C15.6759 14.6996 15.8227 14.6439 15.9309 14.5449C16.0392 14.4458 16.1 14.3117 16.1 14.1718V9.97492H14.8936C14.9293 10.145 14.95 10.3204 14.95 10.4999ZM11.5 12.5999C11.8021 12.5999 12.1012 12.5455 12.3803 12.4398C12.6594 12.3342 12.913 12.1794 13.1265 11.9843C13.3401 11.7892 13.5095 11.5576 13.6251 11.3027C13.7406 11.0479 13.8 10.7747 13.8 10.4989C13.7999 10.223 13.7403 9.9499 13.6246 9.69508C13.5089 9.44026 13.3394 9.20873 13.1257 9.01373C12.9121 8.81873 12.6584 8.66406 12.3792 8.55856C12.1001 8.45307 11.8009 8.3988 11.4988 8.39887C10.8887 8.39901 10.3036 8.62045 9.87223 9.01447C9.4409 9.4085 9.19866 9.94283 9.19881 10.4999C9.19896 11.057 9.44149 11.5912 9.87304 11.9851C10.3046 12.3789 10.8898 12.6001 11.5 12.5999ZM14.26 8.29492H15.6388C15.7304 8.29492 15.8183 8.26177 15.8832 8.20272C15.9481 8.14368 15.9847 8.06356 15.985 7.97992V6.72097C15.985 6.63715 15.9485 6.55676 15.8836 6.49749C15.8187 6.43822 15.7306 6.40492 15.6388 6.40492H14.26C14.1682 6.40492 14.0801 6.43822 14.0152 6.49749C13.9503 6.55676 13.9138 6.63715 13.9138 6.72097V7.97992C13.915 8.15317 14.0702 8.29492 14.26 8.29492ZM11.5 0.419922C8.57197 0.419922 5.7639 1.48192 3.6935 3.37229C1.6231 5.26265 0.459961 7.82654 0.459961 10.4999C0.459961 13.1733 1.6231 15.7372 3.6935 17.6276C5.7639 19.5179 8.57197 20.5799 11.5 20.5799C12.9498 20.5799 14.3854 20.3192 15.7248 19.8126C17.0642 19.3061 18.2813 18.5636 19.3064 17.6276C20.3316 16.6915 21.1448 15.5803 21.6996 14.3574C22.2544 13.1344 22.54 11.8236 22.54 10.4999C22.54 9.1762 22.2544 7.86544 21.6996 6.64247C21.1448 5.41951 20.3316 4.3083 19.3064 3.37229C18.2813 2.43627 17.0642 1.69378 15.7248 1.18722C14.3854 0.680649 12.9498 0.419922 11.5 0.419922ZM17.25 14.5834C17.25 15.2249 16.675 15.7499 15.9723 15.7499H7.02761C6.32496 15.7499 5.74996 15.2249 5.74996 14.5834V6.41647C5.74996 5.77492 6.32496 5.24992 7.02761 5.24992H15.9723C16.675 5.24992 17.25 5.77492 17.25 6.41647V14.5834Z" fill="white"/>
</svg>
