<svg width="21" height="21" viewBox="0 0 21 21" fill="none" xmlns="http://www.w3.org/2000/svg">
<path d="M10.5151 0C4.71211 0 0 4.71212 0 10.5C0 16.2879 4.71211 21 10.5 21C16.2878 21 21 16.2879 21 10.5C21.0151 4.71212 16.303 0 10.5151 0ZM15.9545 9.28788C15.8485 9.30303 15.7424 9.30303 15.6363 9.30303C14.4848 9.30303 13.4242 8.72727 12.803 7.77273V13C12.803 15.1364 11.0757 16.8636 8.93938 16.8636C6.80302 16.8636 5.07575 15.1364 5.07575 13C5.07575 10.8636 6.80302 9.13636 8.93938 9.13636C9.01513 9.13636 9.10604 9.13636 9.1818 9.15151V11.0606C9.10604 11.0455 9.03029 11.0303 8.93938 11.0303C7.84847 11.0303 6.96968 11.9091 6.96968 13C6.96968 14.0909 7.84847 14.9697 8.93938 14.9697C10.0303 14.9697 10.9848 14.1061 10.9848 13.0303L11 4.15152H12.8182C12.9848 5.78788 14.303 7.06061 15.9394 7.18182V9.28788H15.9545Z" fill="white"/>
</svg>
