<svg width="24" height="22" viewBox="0 0 24 22" fill="none" xmlns="http://www.w3.org/2000/svg">
<path d="M12.0125 0.781982C5.48921 0.781982 0.199951 5.51109 0.199951 11.3435C0.199951 17.1759 5.48921 21.905 12.0125 21.905C18.5357 21.905 23.825 17.1759 23.825 11.3435C23.825 5.51109 18.5357 0.781982 12.0125 0.781982ZM17.6893 8.7432C17.6972 8.854 17.6972 8.96952 17.6972 9.08268C17.6972 12.5435 14.7494 16.53 9.36255 16.53C7.70142 16.53 6.16157 16.0986 4.86431 15.3559C5.10161 15.3795 5.32837 15.3889 5.57095 15.3889C6.94204 15.3889 8.20239 14.974 9.20698 14.2715C7.92026 14.2479 6.83921 13.4935 6.47007 12.4562C6.92095 12.5152 7.327 12.5152 7.79106 12.4091C7.12853 12.2887 6.53302 11.967 6.10572 11.4986C5.67841 11.0302 5.44567 10.4439 5.44702 9.83943V9.80643C5.83462 10.0021 6.29077 10.1223 6.76802 10.1388C6.36682 9.89977 6.0378 9.57589 5.81013 9.19591C5.58245 8.81593 5.46317 8.39159 5.46284 7.96052C5.46284 7.47252 5.60523 7.02696 5.86099 6.64033C6.59637 7.44974 7.51403 8.11173 8.5543 8.58328C9.59458 9.05484 10.7342 9.32539 11.8991 9.37737C11.4851 7.59747 12.9722 6.15704 14.7599 6.15704C15.6037 6.15704 16.363 6.47295 16.8983 6.98216C17.5601 6.87136 18.1929 6.64976 18.7572 6.35271C18.5383 6.95859 18.0795 7.47016 17.4705 7.79314C18.0611 7.73656 18.6306 7.59039 19.158 7.38529C18.7598 7.90865 18.2615 8.37308 17.6893 8.7432Z" fill="white"/>
</svg>
