<svg width="68" height="68" viewBox="0 0 68 68" fill="none" xmlns="http://www.w3.org/2000/svg">
<path fill-rule="evenodd" clip-rule="evenodd" d="M33.9999 0.083252C15.2687 0.083252 0.083252 15.2687 0.083252 33.9999C0.083252 52.7312 15.2687 67.9166 33.9999 67.9166C52.7312 67.9166 67.9166 52.7312 67.9166 33.9999C67.9166 15.2687 52.7312 0.083252 33.9999 0.083252ZM23.8465 40.8048C23.265 41.3665 22.4861 41.6773 21.6777 41.6702C20.8692 41.6632 20.0959 41.339 19.5242 40.7673C18.9526 40.1956 18.6283 39.4223 18.6213 38.6138C18.6142 37.8054 18.925 37.0265 19.4867 36.445L31.82 24.1117C32.3982 23.5336 33.1823 23.2089 33.9999 23.2089C34.8175 23.2089 35.6016 23.5336 36.1798 24.1117L48.5132 36.445C49.0748 37.0265 49.3856 37.8054 49.3786 38.6138C49.3716 39.4223 49.0473 40.1956 48.4756 40.7673C47.9039 41.339 47.1306 41.6632 46.3222 41.6702C45.5137 41.6773 44.7349 41.3665 44.1533 40.8048L33.9999 30.6514L23.8465 40.8048Z" fill="white"/>
</svg>
