<svg width="24" height="22" viewBox="0 0 24 22" fill="none" xmlns="http://www.w3.org/2000/svg">
<path d="M12 0.157471C5.63758 0.157471 0.47998 4.91297 0.47998 10.7793C0.47998 16.6457 5.63758 21.4012 12 21.4012C18.3624 21.4012 23.52 16.6457 23.52 10.7793C23.52 4.91297 18.3624 0.157471 12 0.157471ZM16.4304 12.1414C16.4304 12.1414 17.4492 13.0686 17.7 13.499C17.7072 13.5078 17.7108 13.5167 17.7132 13.5211C17.8152 13.6793 17.8392 13.8022 17.7888 13.894C17.7048 14.0467 17.4168 14.1219 17.3184 14.1286H15.5184C15.3936 14.1286 15.132 14.0987 14.8152 13.8973C14.5716 13.7402 14.3316 13.4824 14.0976 13.2312C13.7484 12.8573 13.446 12.5342 13.1412 12.5342C13.1025 12.5341 13.064 12.5397 13.0272 12.5508C12.7968 12.6194 12.5016 12.9225 12.5016 13.7302C12.5016 13.9825 12.2856 14.1274 12.1332 14.1274H11.3088C11.028 14.1274 9.56518 14.0367 8.26918 12.7765C6.68278 11.233 5.25478 8.13715 5.24278 8.10839C5.15278 7.90812 5.33878 7.8008 5.54158 7.8008H7.35958C7.60198 7.8008 7.68118 7.93689 7.73638 8.05749C7.80118 8.19801 8.03878 8.75676 8.42878 9.38522C9.06118 10.4098 9.44878 10.8258 9.75958 10.8258C9.81786 10.8252 9.8751 10.8115 9.92638 10.786C10.332 10.578 10.2564 9.24471 10.2384 8.96809C10.2384 8.91609 10.2372 8.37172 10.0296 8.1106C9.88078 7.9214 9.62758 7.84948 9.47398 7.82292C9.53615 7.74383 9.61806 7.67969 9.71278 7.63593C9.99118 7.50759 10.4928 7.48878 10.9908 7.48878H11.268C11.808 7.49542 11.9472 7.5275 12.1428 7.57287C12.5388 7.66028 12.5472 7.89595 12.5124 8.70255C12.5016 8.93158 12.4908 9.19049 12.4908 9.49587C12.4908 9.56226 12.4872 9.63307 12.4872 9.70831C12.4752 10.1188 12.4608 10.5846 12.7752 10.776C12.8162 10.7997 12.8636 10.8124 12.912 10.8125C13.0212 10.8125 13.35 10.8125 14.2404 9.40403C14.515 8.95068 14.7536 8.47957 14.9544 7.99442C14.9724 7.96565 15.0252 7.87714 15.0876 7.84284C15.1336 7.82119 15.1847 7.81018 15.2364 7.81075H17.3736C17.6064 7.81075 17.766 7.84284 17.796 7.92582C17.8488 8.05749 17.7864 8.45913 16.8108 9.67733L16.3752 10.2073C15.4908 11.2761 15.4908 11.3304 16.4304 12.1414Z" fill="white"/>
</svg>
