<svg width="27" height="18" viewBox="0 0 27 18" fill="none" xmlns="http://www.w3.org/2000/svg">
<path fill-rule="evenodd" clip-rule="evenodd" d="M10.7123 12.2011V5.17716L18.0068 8.70112L10.7123 12.2011ZM26.73 3.95945C26.73 3.95945 26.4656 2.23654 25.6567 1.47821C24.6296 0.482373 23.4787 0.478206 22.9511 0.419873C19.1734 0.166748 13.5056 0.166748 13.5056 0.166748H13.4944C13.4944 0.166748 7.82662 0.166748 4.04887 0.419873C3.52012 0.477165 2.37037 0.482373 1.34212 1.47821C0.53325 2.23654 0.27 3.95945 0.27 3.95945C0.27 3.95945 0 5.98341 0 8.00529V9.9032C0 11.9261 0.27 13.949 0.27 13.949C0.27 13.949 0.53325 15.6709 1.34212 16.4303C2.37037 17.4261 3.71925 17.3949 4.32 17.499C6.48 17.6907 13.5 17.7501 13.5 17.7501C13.5 17.7501 19.1734 17.7428 22.9511 17.4897C23.4799 17.4313 24.6296 17.4261 25.6567 16.4303C26.4667 15.6709 26.73 13.949 26.73 13.949C26.73 13.949 27 11.9261 27 9.90216V8.00633C27 5.98341 26.73 3.95945 26.73 3.95945Z" fill="white"/>
</svg>
